<svg width="260" height="47" viewBox="0 0 260 47" fill="none" xmlns="http://www.w3.org/2000/svg">
<g clip-path="url(#clip0_84_60)">
<path d="M64.5619 11.608V23.0006H73.8836V24.9227H64.5619V33.2988C64.5619 33.9161 64.6444 34.4142 64.8094 34.786C64.9812 35.1613 65.2115 35.4454 65.4968 35.6419C65.7786 35.8383 66.1155 35.9716 66.5005 36.0347C66.8923 36.1013 67.3048 36.1329 67.7379 36.1329H69.0165V37.7885H57V36.1329H57.495C57.9143 36.1329 58.3199 36.1049 58.7049 36.0487C59.0898 35.9926 59.4232 35.8769 59.7085 35.698C60.0007 35.5121 60.231 35.2455 60.396 34.8983C60.5678 34.544 60.6572 34.0775 60.6572 33.4952V13.9791C60.6572 13.4004 60.5678 12.9374 60.396 12.5902C60.231 12.2359 60.0007 11.9588 59.7085 11.7624C59.4232 11.5659 59.0898 11.4397 58.7049 11.3835C58.3199 11.3274 57.9143 11.2994 57.495 11.2994H57V9.6438H76.4684L76.6609 16.5327H74.6535L74.4748 14.835C74.4198 14.386 74.3132 13.9721 74.1586 13.5863C74.0108 13.1935 73.7942 12.8532 73.5124 12.5621C73.2271 12.2745 72.8696 12.043 72.44 11.8746C72.0172 11.6992 71.505 11.608 70.9001 11.608H64.5619Z" fill="white"/>
<path d="M107.022 23.4792C107.022 25.6504 106.753 27.6287 106.224 29.414C105.702 31.2029 104.921 32.7322 103.887 34.0019C102.859 35.2646 101.591 36.2432 100.078 36.9342C98.566 37.6252 96.8371 37.9725 94.8951 37.9725C92.8396 37.9725 91.0523 37.6252 89.533 36.9342C88.0104 36.2432 86.7455 35.2646 85.7384 34.0019C84.7381 32.7322 83.9854 31.2029 83.4835 29.414C82.9783 27.6181 82.7274 25.6329 82.7274 23.4512C82.7274 21.2624 82.9783 19.2807 83.4835 17.5023C83.9854 15.7275 84.7381 14.2122 85.7384 12.9565C86.7455 11.6938 88.0138 10.7222 89.5468 10.0382C91.0867 9.34725 92.8809 9 94.9363 9C96.8784 9 98.597 9.34725 100.092 10.0382C101.594 10.7222 102.859 11.7008 103.887 12.9706C104.921 14.2333 105.702 15.7556 106.224 17.5304C106.753 19.3087 107.022 21.2905 107.022 23.4792ZM87.0033 23.4792C87.0033 25.4364 87.1442 27.1797 87.4295 28.7125C87.7113 30.2488 88.165 31.5431 88.7906 32.5989C89.423 33.6582 90.2377 34.4649 91.2379 35.0261C92.2347 35.5873 93.4549 35.8679 94.8951 35.8679C96.325 35.8679 97.5383 35.5873 98.5385 35.0261C99.5353 34.4649 100.347 33.6582 100.972 32.5989C101.594 31.5431 102.045 30.2488 102.319 28.7125C102.601 27.1797 102.746 25.4364 102.746 23.4792C102.746 21.536 102.601 19.7963 102.319 18.26C102.045 16.7272 101.594 15.4364 100.972 14.3876C100.347 13.3318 99.5422 12.5286 98.5523 11.9744C97.5692 11.4237 96.3662 11.1466 94.9363 11.1466C93.4961 11.1466 92.2725 11.4237 91.2654 11.9744C90.2652 12.5286 89.4437 13.3318 88.8044 14.3876C88.1719 15.4364 87.7113 16.7272 87.4295 18.26C87.1442 19.7963 87.0033 21.536 87.0033 23.4792Z" fill="white"/>
<path d="M132.873 32.9761C133.533 34.0249 134.169 34.8141 134.784 35.3472C135.396 35.8734 136.111 36.1329 136.929 36.1329H137.053V37.7885H136.503C135.293 37.7885 134.296 37.7464 133.519 37.6622C132.749 37.571 132.093 37.3956 131.553 37.1431C131.01 36.8835 130.55 36.5223 130.165 36.0628C129.786 35.5963 129.381 34.993 128.941 34.2529L123.703 25.3717H120.499V33.4952C120.499 34.0775 120.582 34.544 120.747 34.8983C120.918 35.2455 121.149 35.5121 121.434 35.698C121.726 35.8769 122.066 35.9926 122.451 36.0487C122.836 36.1049 123.242 36.1329 123.675 36.1329H124.184V37.7885H112.937V36.1329H113.432C113.852 36.1329 114.257 36.1049 114.642 36.0487C115.027 35.9926 115.36 35.8769 115.646 35.698C115.938 35.5121 116.168 35.2455 116.333 34.8983C116.505 34.544 116.594 34.0775 116.594 33.4952V13.9791C116.594 13.4004 116.505 12.9374 116.333 12.5902C116.168 12.2359 115.938 11.9588 115.646 11.7624C115.36 11.5659 115.027 11.4397 114.642 11.3835C114.257 11.3274 113.852 11.2994 113.432 11.2994H112.937V9.6438H123.331C126.676 9.6438 129.164 10.2752 130.797 11.5379C132.437 12.8006 133.258 14.7052 133.258 17.2482C133.258 18.3075 133.086 19.2265 132.749 20.0122C132.419 20.7978 131.983 21.4818 131.443 22.0606C130.9 22.6428 130.292 23.1234 129.615 23.5057C128.934 23.8915 128.257 24.2002 127.58 24.4317L132.873 32.9761ZM120.499 23.5197H123.221C124.349 23.5197 125.287 23.3934 126.04 23.1409C126.8 22.8813 127.404 22.4955 127.855 21.9904C128.312 21.4783 128.638 20.8364 128.831 20.0683C129.023 19.2931 129.12 18.3917 129.12 17.3604C129.12 16.3152 129.013 15.4208 128.803 14.6807C128.59 13.9441 128.243 13.3408 127.759 12.8708C127.281 12.4043 126.662 12.064 125.902 11.8465C125.139 11.6326 124.215 11.5239 123.125 11.5239H120.499V23.5197Z" fill="white"/>
<path d="M163.525 37.7885V36.1329H163.663C164.075 36.1329 164.447 36.1049 164.777 36.0487C165.113 35.9926 165.399 35.8804 165.629 35.712C165.856 35.5366 166.041 35.2841 166.179 34.9544C166.323 34.6282 166.406 34.1932 166.426 33.6496V12.5902L157.586 37.7885H155.482L146.532 12.6603V33.2988C146.532 33.9161 146.59 34.4142 146.711 34.786C146.838 35.1613 147.027 35.4454 147.274 35.6419C147.522 35.8383 147.814 35.9716 148.154 36.0347C148.501 36.1013 148.89 36.1329 149.323 36.1329H149.433V37.7885H140.51V36.1329H141.005C141.424 36.1329 141.83 36.1049 142.215 36.0487C142.6 35.9926 142.933 35.8769 143.218 35.698C143.51 35.5121 143.741 35.2455 143.906 34.8983C144.078 34.544 144.167 34.0775 144.167 33.4952V13.9791C144.167 13.4004 144.078 12.9374 143.906 12.5902C143.741 12.2359 143.51 11.9588 143.218 11.7624C142.933 11.5659 142.6 11.4397 142.215 11.3835C141.83 11.3274 141.424 11.2994 141.005 11.2994H140.51V9.6438H149.323L157.325 32.1904L165.244 9.6438H173.81V11.2994H173.315C172.875 11.2994 172.462 11.3344 172.077 11.3976C171.692 11.4642 171.352 11.594 171.06 11.7904C170.774 11.9869 170.551 12.2745 170.386 12.6463C170.228 13.0216 170.152 13.5161 170.152 14.1335V33.2988C170.152 33.9161 170.228 34.4142 170.386 34.786C170.551 35.1613 170.774 35.4454 171.06 35.6419C171.352 35.8383 171.692 35.9716 172.077 36.0347C172.462 36.1013 172.875 36.1329 173.315 36.1329H173.81V37.7885H163.525Z" fill="white"/>
<path d="M185.323 28.3742L183.852 32.5131C183.742 32.8218 183.652 33.1269 183.59 33.4251C183.525 33.7267 183.494 33.9863 183.494 34.2108C183.494 34.8772 183.704 35.3612 184.127 35.6699C184.546 35.9786 185.192 36.1329 186.065 36.1329H186.945V37.7885H177.513V36.1329H178.256C178.631 36.1329 178.947 36.0908 179.205 36.0066C179.469 35.9225 179.706 35.7681 179.919 35.5436C180.139 35.3121 180.346 34.9965 180.538 34.6036C180.731 34.2038 180.951 33.6846 181.198 33.0463L189.75 9.6438H192.775L201.505 34.0284C201.66 34.4423 201.815 34.7825 201.973 35.0526C202.127 35.3262 202.31 35.5401 202.523 35.698C202.743 35.8593 202.99 35.9716 203.265 36.0347C203.54 36.1013 203.863 36.1329 204.241 36.1329H204.75V37.7885H194.136V36.1329H195.016C196.562 36.1329 197.339 35.5086 197.339 34.2529C197.339 34.0284 197.312 33.8039 197.257 33.5794C197.202 33.3479 197.123 33.0813 197.023 32.7797L195.469 28.3742H185.323ZM192.376 19.5071C191.97 18.339 191.606 17.2447 191.276 16.224C190.946 15.2068 190.671 14.2177 190.451 13.2636C190.369 13.7406 190.266 14.2001 190.149 14.6386C190.028 15.0805 189.894 15.533 189.75 15.9995C189.612 16.459 189.454 16.9465 189.282 17.4586C189.107 17.9637 188.904 18.5214 188.678 19.1282L186.065 26.3959H194.768L192.376 19.5071Z" fill="white"/>
<path d="M220.74 33.2988C220.74 33.9161 220.822 34.4142 220.987 34.786C221.159 35.1613 221.39 35.4454 221.675 35.6419C221.957 35.8383 222.293 35.9716 222.678 36.0347C223.07 36.1013 223.483 36.1329 223.916 36.1329H224.796V37.7885H212.779V36.1329H213.673C214.092 36.1329 214.498 36.1049 214.883 36.0487C215.268 35.9926 215.601 35.8769 215.887 35.698C216.179 35.5121 216.409 35.2455 216.574 34.8983C216.746 34.544 216.835 34.0775 216.835 33.4952V11.608H213.137C212.576 11.608 212.106 11.6992 211.721 11.8746C211.336 12.043 211.019 12.278 210.772 12.5761C210.524 12.8672 210.339 13.2075 210.222 13.6003C210.102 13.9932 210.019 14.4071 209.975 14.835L209.768 16.5327H207.761L207.953 9.6438H229.704L229.897 16.5327H227.889L227.711 14.835C227.656 14.4071 227.563 13.9932 227.436 13.6003C227.315 13.2075 227.133 12.8672 226.886 12.5761C226.645 12.278 226.329 12.043 225.937 11.8746C225.552 11.6992 225.071 11.608 224.493 11.608H220.74V33.2988Z" fill="white"/>
<path d="M259.37 23.4792C259.37 25.6504 259.102 27.6287 258.573 29.414C258.05 31.2029 257.27 32.7322 256.235 34.0019C255.208 35.2646 253.939 36.2432 252.427 36.9342C250.915 37.6252 249.186 37.9725 247.244 37.9725C245.188 37.9725 243.401 37.6252 241.882 36.9342C240.359 36.2432 239.094 35.2646 238.087 34.0019C237.087 32.7322 236.334 31.2029 235.832 29.414C235.327 27.6181 235.076 25.6329 235.076 23.4512C235.076 21.2624 235.327 19.2807 235.832 17.5023C236.334 15.7275 237.087 14.2122 238.087 12.9565C239.094 11.6938 240.362 10.7222 241.895 10.0382C243.435 9.34725 245.23 9 247.285 9C249.227 9 250.946 9.34725 252.441 10.0382C253.943 10.7222 255.208 11.7008 256.235 12.9706C257.27 14.2333 258.05 15.7556 258.573 17.5304C259.102 19.3087 259.37 21.2905 259.37 23.4792ZM239.352 23.4792C239.352 25.4364 239.493 27.1797 239.778 28.7125C240.06 30.2488 240.514 31.5431 241.139 32.5989C241.772 33.6582 242.586 34.4649 243.587 35.0261C244.583 35.5873 245.804 35.8679 247.244 35.8679C248.674 35.8679 249.887 35.5873 250.887 35.0261C251.884 34.4649 252.695 33.6582 253.321 32.5989C253.943 31.5431 254.393 30.2488 254.668 28.7125C254.95 27.1797 255.094 25.4364 255.094 23.4792C255.094 21.536 254.95 19.7963 254.668 18.26C254.393 16.7272 253.943 15.4364 253.321 14.3876C252.695 13.3318 251.891 12.5286 250.901 11.9744C249.918 11.4237 248.715 11.1466 247.285 11.1466C245.845 11.1466 244.621 11.4237 243.614 11.9744C242.614 12.5286 241.792 13.3318 241.153 14.3876C240.521 15.4364 240.06 16.7272 239.778 18.26C239.493 19.7963 239.352 21.536 239.352 23.4792Z" fill="white"/>
<g clip-path="url(#clip1_84_60)">
<path d="M43 14.2536V32.7515C43 33.1911 42.9399 33.6203 42.8249 34.0445C42.7099 34.4687 42.5401 34.8699 42.3153 35.2506C42.0932 35.6288 41.8241 35.9764 41.5079 36.2855C41.1917 36.5973 40.8415 36.863 40.4521 37.0854L24.0727 46.3305C23.6833 46.5503 23.2704 46.7164 22.8366 46.8288C22.4002 46.9438 21.9586 47 21.5091 47C21.0571 47 20.6154 46.9438 20.179 46.8288C19.7452 46.7164 19.3324 46.5503 18.943 46.3305L2.57138 37.0854C2.1794 36.8656 1.82662 36.6024 1.50781 36.2907C1.189 35.9815 0.917228 35.6365 0.689881 35.2558C0.465147 34.875 0.292677 34.4738 0.175084 34.0496C0.0601026 33.6229 0 33.1911 0 32.7515V14.2536C0 13.8115 0.0574896 13.3797 0.175084 12.9555C0.292677 12.5313 0.465147 12.1275 0.689881 11.7468C0.914615 11.3661 1.189 11.0211 1.50781 10.7119C1.82662 10.4002 2.1794 10.137 2.57138 9.9172L18.9482 0.664383C19.3402 0.447181 19.7531 0.281085 20.1869 0.168651C20.6207 0.056217 21.0649 0 21.5144 0C21.9638 0 22.4055 0.056217 22.8419 0.168651C23.2757 0.281085 23.6885 0.447181 24.0779 0.664383L40.46 9.92231C40.8467 10.1421 41.1969 10.4104 41.5131 10.7196C41.8267 11.0313 42.0958 11.3763 42.3206 11.757C42.5427 12.1352 42.7126 12.539 42.8275 12.9606C42.9425 13.3848 43 13.8141 43 14.2536Z" fill="white"/>
<path d="M32.7846 17.9509L23.7236 11.5637C23.3911 11.3302 23.0295 11.1529 22.642 11.0291C22.2516 10.9081 21.8496 10.8462 21.4418 10.8462C21.0311 10.8462 20.632 10.9081 20.2416 11.0291C19.8511 11.1529 19.4896 11.3302 19.157 11.5637L10.0961 17.9509C9.59572 18.3027 9.20239 18.7472 8.91897 19.2818C8.63843 19.8193 8.49672 20.3876 8.49383 20.987V32.1745C8.49383 32.4221 8.51986 32.6669 8.56902 32.9117C8.61819 33.1537 8.69338 33.3872 8.79171 33.6179C8.88715 33.8459 9.00862 34.0625 9.15034 34.2679C9.29205 34.4733 9.45111 34.6647 9.63332 34.8391C9.81263 35.0136 10.0093 35.1683 10.2204 35.3062C10.4344 35.4441 10.6571 35.5594 10.8914 35.6551C11.1285 35.7508 11.3715 35.8211 11.6202 35.8689C11.8718 35.9168 12.1234 35.9421 12.3779 35.9421H30.5027C30.7572 35.9421 31.0089 35.9168 31.2605 35.8689C31.5092 35.8211 31.7521 35.7508 31.9893 35.6551C32.2235 35.5594 32.4491 35.4441 32.6603 35.3062C32.8714 35.1683 33.068 35.0136 33.2502 34.8391C33.4296 34.6647 33.5915 34.4733 33.7332 34.2679C33.8749 34.0625 33.9935 33.8459 34.0918 33.6179C34.1873 33.3872 34.2625 33.1537 34.3116 32.9117C34.3608 32.6669 34.3868 32.4221 34.3868 32.1745V20.987C34.3839 20.3876 34.2422 19.8193 33.9617 19.2818C33.6783 18.7472 33.2878 18.3027 32.7846 17.9509ZM33.5221 32.1745C33.5221 32.3686 33.5047 32.56 33.4643 32.7485C33.4267 32.937 33.3688 33.1199 33.2936 33.2972C33.2184 33.4744 33.1259 33.6433 33.0131 33.8037C32.9032 33.964 32.7788 34.1104 32.64 34.2482C32.4983 34.3833 32.345 34.5043 32.1802 34.6112C32.0153 34.7181 31.8418 34.8082 31.6596 34.8813C31.4745 34.9545 31.2865 35.0108 31.0927 35.0473C30.8961 35.0867 30.7023 35.1036 30.5027 35.1036H12.3779C12.1813 35.1036 11.9846 35.0867 11.7908 35.0473C11.5942 35.0108 11.4062 34.9545 11.224 34.8813C11.0389 34.8082 10.8654 34.7181 10.7005 34.6112C10.5357 34.5043 10.3824 34.3833 10.2436 34.2482C10.1018 34.1104 9.97748 33.964 9.86758 33.8037C9.75768 33.6433 9.66513 33.4744 9.58704 33.2972C9.51185 33.1199 9.45401 32.937 9.41641 32.7485C9.37881 32.56 9.35857 32.3686 9.35857 32.1745V20.987C9.35857 20.5199 9.46847 20.0753 9.68827 19.6589C9.90807 19.2396 10.2146 18.8935 10.6051 18.6206L19.666 12.2334C19.9263 12.0533 20.2069 11.9154 20.5105 11.8198C20.8113 11.7241 21.1236 11.6763 21.4418 11.6763C21.7628 11.6763 22.0723 11.7241 22.3759 11.8198C22.6796 11.9154 22.9601 12.0533 23.2175 12.2334L32.2814 18.6206C32.6718 18.8964 32.9755 19.2424 33.1953 19.6589C33.4151 20.0753 33.5221 20.5199 33.5221 20.987V32.1745Z" fill="#080C10"/>
<path d="M19.4347 21.5174H20.8026C20.9906 21.5174 21.141 21.3711 21.141 21.1882V19.8573C21.141 19.6772 20.9906 19.5281 20.8026 19.5281H19.4347C19.2496 19.5281 19.0963 19.6772 19.0963 19.8573V21.1882C19.0963 21.3711 19.2496 21.5174 19.4347 21.5174Z" fill="#080C10"/>
<path d="M22.1301 21.5174H23.4981C23.6861 21.5174 23.8365 21.3711 23.8365 21.1882V19.8573C23.8365 19.6772 23.6861 19.5281 23.4981 19.5281H22.1301C21.945 19.5281 21.7917 19.6772 21.7917 19.8573V21.1882C21.7917 21.3711 21.945 21.5174 22.1301 21.5174Z" fill="#080C10"/>
<path d="M19.4347 24.1398H20.8026C20.9906 24.1398 21.141 23.9935 21.141 23.8134V22.4797C21.141 22.2996 20.9906 22.1533 20.8026 22.1533H19.4347C19.2496 22.1533 19.0963 22.2996 19.0963 22.4797V23.8134C19.0963 23.9935 19.2496 24.1398 19.4347 24.1398Z" fill="#080C10"/>
<path d="M22.1301 24.1398H23.4981C23.6861 24.1398 23.8365 23.9935 23.8365 23.8134V22.4797C23.8365 22.2996 23.6861 22.1533 23.4981 22.1533H22.1301C21.945 22.1533 21.7917 22.2996 21.7917 22.4797V23.8134C21.7917 23.9935 21.945 24.1398 22.1301 24.1398Z" fill="#080C10"/>
</g>
</g>
<defs>
<clipPath id="clip0_84_60">
<rect width="260" height="47" fill="white"/>
</clipPath>
<clipPath id="clip1_84_60">
<rect width="43" height="47" fill="white"/>
</clipPath>
</defs>
</svg>
