<svg width="160" height="177" viewBox="0 0 160 177" fill="none" xmlns="http://www.w3.org/2000/svg">
    <g filter="url(#filter0_dd_452_163)">
        <path
            d="M48.75 30C53.7228 30 58.4919 32.0545 62.0083 35.7114C65.5246 39.3684 67.5 44.3283 67.5 49.5V127.5C67.5 132.672 65.5246 137.632 62.0083 141.289C58.4919 144.946 53.7228 147 48.75 147C43.7772 147 39.0081 144.946 35.4917 141.289C31.9754 137.632 30 132.672 30 127.5V49.5C30 44.3283 31.9754 39.3684 35.4917 35.7114C39.0081 32.0545 43.7772 30 48.75 30ZM111.25 30C116.223 30 120.992 32.0545 124.508 35.7114C128.025 39.3684 130 44.3283 130 49.5V127.5C130 132.672 128.025 137.632 124.508 141.289C120.992 144.946 116.223 147 111.25 147C106.277 147 101.508 144.946 97.9917 141.289C94.4754 137.632 92.5 132.672 92.5 127.5V49.5C92.5 44.3283 94.4754 39.3684 97.9917 35.7114C101.508 32.0545 106.277 30 111.25 30Z"
            fill="url(#paint0_linear_452_163)" fill-opacity="0.9" shape-rendering="crispEdges" />
    </g>
    <defs>
        <filter id="filter0_dd_452_163" x="0" y="0" width="160" height="177"
            filterUnits="userSpaceOnUse" color-interpolation-filters="sRGB">
            <feFlood flood-opacity="0" result="BackgroundImageFix" />
            <feColorMatrix in="SourceAlpha" type="matrix"
                values="0 0 0 0 0 0 0 0 0 0 0 0 0 0 0 0 0 0 127 0" result="hardAlpha" />
            <feOffset dx="-10" dy="-10" />
            <feGaussianBlur stdDeviation="10" />
            <feComposite in2="hardAlpha" operator="out" />
            <feColorMatrix type="matrix" values="0 0 0 0 1 0 0 0 0 1 0 0 0 0 1 0 0 0 0.25 0" />
            <feBlend mode="normal" in2="BackgroundImageFix" result="effect1_dropShadow_452_163" />
            <feColorMatrix in="SourceAlpha" type="matrix"
                values="0 0 0 0 0 0 0 0 0 0 0 0 0 0 0 0 0 0 127 0" result="hardAlpha" />
            <feOffset dx="10" dy="10" />
            <feGaussianBlur stdDeviation="10" />
            <feComposite in2="hardAlpha" operator="out" />
            <feColorMatrix type="matrix"
                values="0 0 0 0 0.85098 0 0 0 0 0.85098 0 0 0 0 0.85098 0 0 0 0.25 0" />
            <feBlend mode="normal" in2="effect1_dropShadow_452_163"
                result="effect2_dropShadow_452_163" />
            <feBlend mode="normal" in="SourceGraphic" in2="effect2_dropShadow_452_163"
                result="shape" />
        </filter>
        <linearGradient id="paint0_linear_452_163" x1="30" y1="30" x2="334.834" y2="272.504"
            gradientUnits="userSpaceOnUse">
            <stop stop-color="#E6E6E6" />
            <stop offset="1" stop-color="white" stop-opacity="0" />
        </linearGradient>
    </defs>
</svg>