<svg width="71" height="64" viewBox="0 0 71 64" fill="none" xmlns="http://www.w3.org/2000/svg">
<path d="M63.25 63.25C65.0899 63.25 66.8545 62.5191 68.1555 61.2181C69.4566 59.917 70.1875 58.1524 70.1875 56.3125V39.3711C70.1875 37.5312 69.4566 35.7666 68.1555 34.4656C66.8545 33.1645 65.0899 32.4336 63.25 32.4336H53.6207C53.6207 29.9986 53.7664 27.5566 54.0508 25.1215C54.481 22.5408 55.2025 20.2444 56.2015 18.2395C57.2074 16.2276 58.4978 14.6528 60.0795 13.5012C61.6544 12.2108 63.6593 11.5656 66.1013 11.5656V0.8125C62.0845 0.8125 58.5741 1.67275 55.5563 3.39325C52.5647 5.09631 49.9927 7.44788 48.0291 10.2752C46.0583 13.3924 44.6058 16.8083 43.7279 20.3901C42.8432 24.3428 42.4103 28.3832 42.4375 32.4336V56.3125C42.4375 58.1524 43.1684 59.917 44.4694 61.2181C45.7705 62.5191 47.535 63.25 49.375 63.25H63.25ZM21.625 63.25C23.4649 63.25 25.2295 62.5191 26.5305 61.2181C27.8316 59.917 28.5625 58.1524 28.5625 56.3125V39.3711C28.5625 37.5312 27.8316 35.7666 26.5305 34.4656C25.2295 33.1645 23.4649 32.4336 21.625 32.4336H11.9957C11.9957 29.9986 12.1414 27.5566 12.4259 25.1215C12.856 22.5408 13.5775 20.2444 14.5765 18.2395C15.5824 16.2276 16.8728 14.6528 18.4545 13.5012C20.0294 12.2108 22.0343 11.5656 24.4763 11.5656V0.8125C20.4595 0.8125 16.9491 1.67275 13.9313 3.39325C10.9397 5.09631 8.36771 7.44788 6.40411 10.2752C4.43334 13.3924 2.98076 16.8083 2.10286 20.3901C1.21823 24.3428 0.785329 28.3832 0.812481 32.4336V56.3125C0.812481 58.1524 1.54339 59.917 2.84443 61.2181C4.14546 62.5191 5.91004 63.25 7.74998 63.25H21.625Z" fill="white"/>
</svg>
