<svg width="71" height="64" viewBox="0 0 71 64" fill="none" xmlns="http://www.w3.org/2000/svg">
<path d="M7.75002 0.75C5.91008 0.75 4.1455 1.48092 2.84447 2.78195C1.54343 4.08298 0.812523 5.84756 0.812523 7.6875V24.6289C0.812523 26.4688 1.54343 28.2334 2.84447 29.5344C4.1455 30.8355 5.91008 31.5664 7.75002 31.5664H17.3793C17.3793 34.0014 17.2336 36.4434 16.9492 38.8785C16.519 41.4592 15.7975 43.7556 14.7985 45.7605C13.7926 47.7724 12.5022 49.3472 10.9205 50.4988C9.34565 51.7892 7.34071 52.4344 4.8987 52.4344V63.1875C8.91552 63.1875 12.4259 62.3273 15.4437 60.6068C18.4353 58.9037 21.0073 56.5521 22.9709 53.7248C24.9417 50.6076 26.3942 47.1917 27.2721 43.6099C28.1568 39.6572 28.5897 35.6168 28.5625 31.5664V7.6875C28.5625 5.84756 27.8316 4.08298 26.5306 2.78195C25.2295 1.48092 23.465 0.75 21.625 0.75H7.75002ZM49.375 0.75C47.5351 0.75 45.7705 1.48092 44.4695 2.78195C43.1684 4.08298 42.4375 5.84756 42.4375 7.6875L42.4375 24.6289C42.4375 26.4688 43.1684 28.2334 44.4695 29.5344C45.7705 30.8355 47.5351 31.5664 49.375 31.5664L59.0043 31.5664C59.0043 34.0014 58.8586 36.4434 58.5741 38.8785C58.144 41.4592 57.4225 43.7556 56.4235 45.7605C55.4176 47.7724 54.1272 49.3472 52.5455 50.4988C50.9706 51.7892 48.9657 52.4344 46.5237 52.4344V63.1875C50.5405 63.1875 54.0509 62.3273 57.0687 60.6068C60.0603 58.9037 62.6323 56.5521 64.5959 53.7248C66.5667 50.6076 68.0192 47.1917 68.8971 43.6099C69.7818 39.6572 70.2147 35.6168 70.1875 31.5664V7.6875C70.1875 5.84756 69.4566 4.08298 68.1556 2.78195C66.8545 1.48092 65.09 0.75 63.25 0.75H49.375Z" fill="white"/>
</svg>
